<?xml version="1.0" encoding="UTF-8"?>
<svg id="Layer_2" data-name="Layer 2" xmlns="http://www.w3.org/2000/svg" viewBox="0 0 405.35 239.83">
  <defs>
    <style>
      .cls-1, .cls-2 {
        stroke-width: 0px;
      }

      .cls-2 {
        fill: #fff;
      }
    </style>
  </defs>
  <g id="katman_1" data-name="katman 1">
    <g>
      <path class="cls-2" d="m321.02,96.86c0-.14,0-.28,0-.42,5.03,0,10.07-.23,15.09.04,15.34.83,29.13-3.26,41.43-12.44,17.61-13.16,25.41-31.5,27.64-52.7,1.25-11.9-3.77-20.88-14.33-26.57-9.08-4.89-18.67-5.81-28.6-3.73-28.55,5.97-57.42,8.13-86.51,7.15-22.47-.76-44.75-3.71-67.04-6.4-34.73-4.19-67.56.89-98.04,18.75-7.55,4.42-15.82,6.8-24.59,7.57-21.93,1.93-40.89,10.34-56.06,26.53-12.62,13.46-21.31,29.23-26.56,46.86-3.8,12.78-4.72,25.86-1.36,38.81,5.98,23.06,19.68,39.08,43.69,44.33,6.39,1.4,11.29,4.04,15.01,9.26,1.36,1.9,2.82,3.74,4.38,5.48,25.46,28.31,56.76,40.93,94.85,35.09,3.69-.57,7.31-1.6,11-2.16,6.57-.99,12.69.74,18.8,3.07,27.68,10.55,52.19,2.11,67.72-23.17,6.27-10.2,9.65-21.4,9.64-33.27-.01-7.72,2.67-13.04,8.36-18.18,17.54-15.82,24.73-35.3,18.67-58.79-1.1-4.26-.59-5.02,4.02-5.09,7.6-.11,15.2-.03,22.81-.03Z"/>
      <path class="cls-1" d="m321.02,96.86c-7.6,0-15.21-.08-22.81.03-4.62.07-5.12.83-4.02,5.09,6.07,23.5-1.13,42.97-18.67,58.79-5.69,5.14-8.37,10.46-8.36,18.18.02,11.86-3.37,23.06-9.64,33.27-15.53,25.28-40.04,33.72-67.72,23.17-6.11-2.33-12.23-4.06-18.8-3.07-3.69.56-7.31,1.59-11,2.16-38.09,5.83-69.39-6.78-94.85-35.09-1.56-1.74-3.03-3.58-4.38-5.48-3.72-5.21-8.62-7.86-15.01-9.26-24.01-5.25-37.71-21.26-43.69-44.33-3.36-12.95-2.44-26.03,1.36-38.81,5.25-17.63,13.94-33.4,26.56-46.86,15.17-16.18,34.12-24.6,56.06-26.53,8.77-.77,17.04-3.15,24.59-7.57C141.13,2.68,173.96-2.4,208.69,1.79c22.29,2.69,44.58,5.64,67.04,6.4,29.1.98,57.97-1.18,86.51-7.15,9.92-2.07,19.52-1.16,28.6,3.73,10.56,5.69,15.58,14.67,14.33,26.57-2.22,21.2-10.02,39.54-27.64,52.7-12.29,9.18-26.09,13.28-41.43,12.44-5.01-.27-10.06-.04-15.09-.04,0,.14,0,.28,0,.42Zm-77.73-30.72c1.83-.64,2.92.29,4.05.74,8.53,3.4,16.22,8.25,23.38,13.93,4.15,3.29,8.7,4.73,13.95,4.58,10.99-.32,22-.22,32.98-.79,10.39-.54,20.89.29,31.17-1.41,28.91-4.78,44.07-29.22,44.09-54.24,0-8.45-4.97-13.23-13.26-14.38-11.6-1.61-23.11-.79-34.56.96-23.23,3.56-46.51,6.08-70.05,6.35-21.42.25-42.71-.36-63.88-4.19-16.17-2.92-32.55-3.48-48.89-1.48-25.94,3.19-49.21,13.02-69.9,28.97-3.54,2.73-7.1,5.45-10.65,8.17l-.61-.61c2.92-3.64,5.85-7.27,8.81-10.96-2.73-1.55-5.35-1.41-7.86-1.09-13.51,1.73-26.32,5.66-37.11,14.22-24.44,19.39-34.96,44.91-31.8,75.85,2.1,20.56,13.3,34.34,32.82,41.26,2.02.72,4.67,2.34,6.16.95,1.32-1.22-.37-3.9-.76-5.92-3.28-17.21-4.86-34.44-.96-51.77,1.19-5.3,2.65-10.52,5.5-15.24-.66,6.89-1.77,13.66-2.16,20.54-1.14,19.77,2.3,38.58,11.45,56.19,18.25,35.09,55.16,49.44,88.86,44.37,14.07-2.12,26.83-7.65,38.98-14.75,2.02-1.18,4.02-1.78,6.31-1.5,3.48.42,6.96.77,10.43,1.24,1.83.25,3.84-.27,5.91,1.11-3.36,1.7-6.37,2.76-9.76,2.43-2.62-.25-5.24.1-7.37,1.67-3.62,2.66-7.07,5.55-10.83,8.55,10.54,6,21.37,7.01,32.63,5.39,11.03-1.58,19.33-7.36,24.9-16.85,7.44-12.68,9.57-26.35,7.03-40.83-1.93-10.97-6.79-20.75-11.84-30.49-.71-1.37-1.85-2.64-1.83-4.88,7.07,5.38,12.26,11.72,16.36,19,4.15,7.36,4.39,7.41,11.12,1.85.99-.82,1.94-1.69,2.85-2.6,14.65-14.55,17.29-36.6,6.45-55.1-6.28-10.72-15.25-18.82-25.7-25.37-2.03-1.27-4.09-2.49-6.4-3.89Z"/>
      <path class="cls-2" d="m243.28,66.15c2.31,1.4,4.37,2.62,6.4,3.89,10.45,6.55,19.42,14.65,25.7,25.37,10.84,18.5,8.19,40.55-6.45,55.1-.91.91-1.86,1.78-2.85,2.6-6.72,5.55-6.96,5.51-11.12-1.85-4.11-7.28-9.3-13.62-16.36-19-.02,2.24,1.12,3.5,1.83,4.88,5.05,9.74,9.92,19.52,11.84,30.49,2.54,14.47.41,28.15-7.03,40.83-5.57,9.5-13.87,15.27-24.9,16.85-11.26,1.61-22.09.6-32.63-5.39,3.77-2.99,7.22-5.89,10.83-8.55,2.13-1.57,4.75-1.92,7.37-1.67,3.39.33,6.4-.74,9.76-2.43-2.06-1.39-4.08-.87-5.91-1.11-3.47-.47-6.96-.82-10.43-1.24-2.29-.28-4.29.32-6.31,1.5-12.15,7.11-24.91,12.64-38.98,14.75-33.71,5.07-70.61-9.27-88.86-44.37-9.16-17.61-12.59-36.42-11.45-56.19.4-6.88,1.5-13.65,2.16-20.54-2.85,4.72-4.31,9.95-5.5,15.24-3.89,17.33-2.31,34.56.96,51.77.38,2.02,2.07,4.7.76,5.92-1.5,1.39-4.14-.23-6.16-.95-19.52-6.91-30.72-20.7-32.82-41.26-3.15-30.93,7.36-56.45,31.8-75.85,10.79-8.56,23.6-12.49,37.11-14.22,2.51-.32,5.13-.46,7.86,1.09-2.97,3.69-5.89,7.33-8.81,10.96l.61.61c3.55-2.72,7.11-5.44,10.65-8.17,20.69-15.95,43.96-25.79,69.9-28.97,16.33-2.01,32.72-1.44,48.89,1.48,21.17,3.82,42.46,4.43,63.88,4.19,23.54-.27,46.82-2.79,70.05-6.35,11.44-1.75,22.95-2.57,34.56-.96,8.3,1.15,13.27,5.93,13.26,14.38-.02,25.02-15.18,49.46-44.09,54.24-10.29,1.7-20.78.87-31.17,1.41-10.98.57-21.99.47-32.98.79-5.25.15-9.8-1.29-13.95-4.58-7.16-5.68-14.85-10.54-23.38-13.93-1.13-.45-2.22-1.38-4.05-.74Zm-90.87,67.03c-1.46-1.26-2.26-2.11-3.2-2.73-16.66-10.99-35.07-15.43-54.86-14.41-3.04.16-6.23.64-8.83,2.89,3.47,1.21,63.35,14.07,66.9,14.26Zm14.68-48.27c-15.99-14.27-58.01-12.88-68.7.02,22.86-4.79,45.55-4.18,68.7-.02Zm6.95-48.85c-2.54-1.24-4.2-1.57-5.91-1.8-8.25-1.11-16.33,0-24.33,1.95-8.25,2-16.07,5-22.83,10.28-2.89,2.25-5.45,4.84-6.95,9.12,19.26-9.39,38.36-16.77,60.02-19.55Z"/>
      <path class="cls-1" d="m152.41,133.17c-3.55-.19-63.43-13.04-66.9-14.26,2.6-2.25,5.79-2.73,8.83-2.89,19.79-1.01,38.21,3.42,54.86,14.41.95.62,1.74,1.48,3.2,2.73Z"/>
      <path class="cls-1" d="m167.09,84.9c-23.14-4.16-45.83-4.76-68.7.02,10.68-12.9,52.7-14.29,68.7-.02Z"/>
      <path class="cls-1" d="m174.04,36.05c-21.66,2.78-40.77,10.16-60.02,19.55,1.5-4.28,4.06-6.87,6.95-9.12,6.76-5.28,14.59-8.28,22.83-10.28,8-1.94,16.07-3.06,24.33-1.95,1.72.23,3.38.57,5.91,1.8Z"/>
    </g>
  </g>
</svg>